<?xml version="1.0" standalone="no"?>
<!DOCTYPE svg PUBLIC "-//W3C//DTD SVG 20010904//EN"
 "http://www.w3.org/TR/2001/REC-SVG-20010904/DTD/svg10.dtd">
<svg version="1.0" xmlns="http://www.w3.org/2000/svg"
 width="200.000000pt" height="200.000000pt" viewBox="0 0 200.000000 200.000000"
 preserveAspectRatio="xMidYMid meet">
<metadata>
Created by potrace 1.11, written by Peter Selinger 2001-2013
</metadata>
<g transform="translate(0.000000,200.000000) scale(0.100000,-0.100000)"
fill="#000000" stroke="none">
<path d="M850 1859 c-68 -22 -127 -44 -131 -50 -4 -6 -5 -19 -2 -28 2 -10 -3
-23 -11 -30 -9 -8 -16 -20 -16 -27 0 -11 -7 -13 -26 -8 -27 7 -27 7 -21 -44 3
-27 10 -60 16 -71 14 -26 47 -29 36 -3 -12 30 -25 76 -22 79 2 1 17 -1 33 -6
16 -4 63 -7 104 -5 61 2 84 -1 126 -20 l50 -23 40 20 c31 17 59 21 139 22 55
1 110 5 122 9 20 6 21 5 13 -23 -6 -22 -5 -33 6 -42 18 -14 25 3 27 63 2 48
11 45 -96 30 -66 -10 -91 1 -85 37 2 18 15 27 53 39 28 10 50 22 49 27 0 9
-197 79 -253 89 -15 3 -79 -12 -151 -35z m235 -24 c87 -27 89 -28 62 -40 -22
-9 -43 -9 -90 0 -66 11 -83 11 -162 1 -27 -4 -61 -3 -75 2 -22 8 -14 13 70 39
52 17 97 29 100 28 3 -2 46 -15 95 -30z m-289 -65 c9 0 14 -11 14 -35 0 -24
-5 -35 -15 -35 -8 0 -15 8 -15 19 0 10 -7 24 -15 31 -20 16 -19 34 1 26 9 -3
22 -6 30 -6z m285 -12 c32 -9 39 -15 39 -34 0 -18 -6 -24 -21 -24 -11 0 -42
-10 -70 -21 -46 -20 -50 -20 -74 -5 -14 9 -45 19 -70 23 -39 5 -45 9 -43 27 2
14 15 25 38 32 43 14 148 15 201 2z m-333 -46 c2 -7 -3 -12 -12 -12 -9 0 -16
7 -16 16 0 17 22 14 28 -4z"/>
<path d="M752 1593 c-49 -24 -75 -68 -80 -132 -3 -46 0 -62 20 -90 90 -133
291 -74 291 85 0 116 -125 190 -231 137z m165 -59 c78 -89 8 -217 -110 -201
-114 15 -143 166 -44 228 51 32 113 21 154 -27z"/>
<path d="M765 1538 c-26 -15 -36 -31 -26 -41 4 -4 21 0 37 9 57 32 113 -21 86
-80 -22 -49 -106 -37 -114 15 -4 28 -23 36 -32 13 -3 -9 3 -31 14 -50 38 -60
132 -56 163 8 15 31 15 38 -5 89 -16 43 -79 62 -123 37z"/>
<path d="M800 1490 c0 -16 40 -51 50 -45 11 7 2 37 -14 47 -16 11 -36 10 -36
-2z"/>
<path d="M1123 1589 c-92 -59 -100 -192 -17 -258 49 -38 109 -44 175 -17 12 5
18 0 23 -16 7 -28 6 -92 -3 -133 l-6 -30 -23 36 c-29 48 -84 89 -147 111 -27
9 -49 23 -47 29 3 13 -56 79 -70 79 -5 0 -25 -16 -44 -35 -27 -28 -33 -39 -25
-49 9 -10 -1 -18 -47 -34 -63 -24 -129 -79 -154 -133 l-17 -34 -12 30 c-7 17
-13 63 -13 103 -1 59 -4 72 -16 70 -12 -3 -15 -20 -14 -83 1 -91 21 -144 80
-213 19 -22 30 -43 25 -46 -11 -7 3 -64 18 -79 17 -17 24 19 12 55 -10 30 -9
31 4 14 8 -11 15 -30 15 -42 0 -22 25 -40 35 -24 3 4 2 16 -2 26 -5 14 -3 16
13 10 89 -36 179 -36 267 -1 15 6 17 3 13 -19 -7 -42 26 -29 39 14 6 19 31 56
56 81 63 63 91 127 96 219 3 41 1 86 -5 100 -7 18 -4 32 10 57 24 40 26 109 4
152 -39 75 -152 106 -223 60z m137 -22 c34 -17 70 -74 70 -109 0 -159 -230
-172 -247 -14 -5 39 -2 51 22 82 40 53 100 69 155 41z m-232 -273 c-14 -30
-22 -30 -41 0 -14 21 -14 25 1 39 14 15 17 15 33 1 14 -13 16 -20 7 -40z m125
-59 c35 -16 107 -88 107 -106 0 -5 7 -6 16 -2 13 5 13 0 -4 -33 -90 -175 -332
-216 -479 -81 -48 44 -52 61 -23 116 26 52 80 95 143 115 51 16 52 16 69 -4
18 -22 48 -27 48 -7 0 38 46 39 123 2z"/>
<path d="M1143 1538 c-13 -6 -23 -17 -23 -25 0 -16 10 -16 44 -3 74 28 120
-73 50 -110 -22 -12 -29 -12 -52 1 -15 8 -28 24 -30 36 -2 12 -9 27 -17 33
-10 9 -15 7 -20 -9 -14 -45 40 -100 97 -101 28 0 42 7 62 31 69 82 -15 193
-111 147z"/>
<path d="M1184 1499 c-3 -6 3 -20 14 -31 24 -24 47 -16 32 11 -12 23 -37 34
-46 20z"/>
<path d="M723 935 c7 -42 20 -61 36 -51 13 8 -11 78 -29 84 -10 4 -12 -4 -7
-33z"/>
<path d="M1207 953 c-12 -20 -17 -72 -8 -77 12 -8 28 19 35 57 3 19 0 27 -9
27 -8 0 -16 -3 -18 -7z"/>
<path d="M1252 928 c-10 -35 1 -59 18 -42 5 5 13 24 16 42 9 45 -22 45 -34 0z"/>
<path d="M230 590 l0 -170 113 0 c87 0 120 4 147 18 57 28 66 97 18 142 -21
19 -21 20 -3 40 23 26 22 78 -3 102 -26 26 -81 37 -184 38 l-88 0 0 -170z
m201 89 c20 -20 20 -22 3 -40 -13 -14 -31 -19 -71 -19 l-53 0 0 40 0 40 50 0
c37 0 55 -5 71 -21z m17 -131 c18 -18 14 -46 -7 -58 -11 -5 -45 -10 -75 -10
l-56 0 0 40 0 40 63 0 c36 0 68 -5 75 -12z"/>
<path d="M909 721 c-1 -9 0 -25 1 -36 1 -11 -1 -17 -5 -13 -4 4 -16 3 -25 -2
-27 -14 -16 -55 13 -55 8 0 14 -27 17 -75 3 -41 9 -81 14 -89 17 -26 71 -41
109 -30 34 9 36 11 25 34 -8 18 -19 25 -38 25 -32 0 -37 13 -36 85 1 49 2 50
31 50 27 1 30 4 30 30 0 27 -3 30 -30 30 -19 0 -30 5 -31 15 -1 8 -2 23 -3 32
-1 24 -70 22 -72 -1z"/>
<path d="M1110 708 c0 -22 -6 -31 -21 -35 -15 -4 -19 -12 -17 -32 2 -15 9 -26
18 -26 11 0 16 -17 20 -70 6 -78 20 -110 51 -120 31 -10 90 -8 101 3 16 16 -9
50 -39 54 -27 3 -28 5 -31 70 l-3 67 31 -4 c30 -4 31 -3 28 28 -3 28 -6 32
-30 30 -23 -2 -27 2 -30 30 -3 29 -6 32 -40 34 -36 1 -38 -1 -38 -29z"/>
<path d="M705 684 c-5 -1 -22 -5 -36 -8 -77 -17 -116 -117 -77 -194 30 -59
137 -84 207 -48 28 15 31 19 19 34 -21 27 -31 31 -49 21 -31 -16 -78 -10 -101
14 l-23 22 103 3 102 3 -3 32 c-7 61 -39 99 -97 114 -19 6 -39 9 -45 7z m53
-77 c6 -5 12 -16 12 -23 0 -11 -15 -14 -59 -13 -51 1 -58 4 -54 20 9 33 67 42
101 16z"/>
<path d="M1390 680 c-46 -13 -72 -34 -90 -74 -29 -62 -9 -133 47 -167 42 -26
115 -29 161 -5 27 14 31 20 22 36 -14 26 -30 34 -43 21 -25 -25 -117 -6 -117
24 0 12 18 15 95 15 l95 0 0 25 c0 31 -21 73 -47 97 -23 22 -91 37 -123 28z
m54 -60 c14 -5 30 -18 36 -30 10 -19 8 -20 -54 -20 l-66 0 12 25 c6 13 18 26
27 28 9 3 17 5 18 6 1 0 13 -3 27 -9z"/>
<path d="M1610 549 l0 -130 38 3 37 3 1 60 c2 101 3 104 32 118 15 8 33 12 40
10 8 -3 12 7 12 31 0 31 -3 36 -23 36 -12 0 -33 -7 -45 -16 -20 -14 -22 -14
-22 0 0 12 -10 16 -35 16 l-35 0 0 -131z"/>
<path d="M1025 313 c-8 -8 -15 -23 -15 -34 0 -10 -7 -19 -15 -19 -8 0 -15 -4
-15 -10 0 -5 7 -10 16 -10 12 0 15 -9 14 -37 -3 -70 0 -103 10 -103 6 0 10 30
10 70 0 68 1 70 26 70 14 0 23 4 19 10 -3 6 -15 10 -26 10 -15 0 -20 6 -17 23
2 16 9 21 26 19 27 -4 29 14 2 21 -11 3 -27 -1 -35 -10z"/>
<path d="M920 304 c0 -17 22 -14 28 4 2 7 -3 12 -12 12 -9 0 -16 -7 -16 -16z"/>
<path d="M755 298 c-2 -7 -3 -53 -2 -103 l2 -90 68 -3 c42 -2 67 1 67 8 0 6
-24 10 -58 10 l-58 0 2 95 c1 52 -3 95 -8 95 -5 0 -10 -6 -13 -12z"/>
<path d="M927 253 c-9 -16 -2 -148 8 -146 11 3 15 142 4 149 -4 2 -10 1 -12
-3z"/>
<path d="M1116 239 c-56 -44 -20 -139 53 -139 32 0 69 24 53 34 -6 3 -13 2
-17 -4 -16 -26 -95 2 -95 33 0 4 30 7 66 7 l66 0 -6 28 c-14 58 -72 79 -120
41z m87 -21 l22 -23 -54 -3 c-29 -2 -55 -1 -58 1 -2 3 2 14 9 26 17 27 52 27
81 -1z"/>
</g>
</svg>
