<?xml version="1.0" standalone="no"?>
<!DOCTYPE svg PUBLIC "-//W3C//DTD SVG 20010904//EN"
 "http://www.w3.org/TR/2001/REC-SVG-20010904/DTD/svg10.dtd">
<svg version="1.0" xmlns="http://www.w3.org/2000/svg"
 width="200.000000pt" height="200.000000pt" viewBox="0 0 200.000000 200.000000"
 preserveAspectRatio="xMidYMid meet">
<metadata>
Created by potrace 1.11, written by Peter Selinger 2001-2013
</metadata>
<g transform="translate(0.000000,200.000000) scale(0.100000,-0.100000)"
fill="#000000" stroke="none">
<path d="M775 1736 l-220 -62 -3 -49 c-2 -36 -9 -55 -28 -71 -13 -13 -24 -28
-24 -34 0 -6 -14 -8 -40 -4 -39 6 -41 5 -43 -28 -2 -37 17 -119 34 -147 19
-31 54 -42 61 -19 2 6 -4 27 -13 47 -9 20 -20 49 -24 65 -6 26 -4 28 17 21 13
-4 97 -10 188 -11 168 -4 214 -13 283 -54 27 -16 30 -16 114 18 85 34 88 34
231 33 79 -1 162 4 184 10 22 5 43 8 46 4 3 -3 1 -23 -4 -43 -12 -47 -8 -62
17 -62 23 0 38 34 44 100 6 72 0 76 -86 55 -65 -16 -194 -23 -206 -12 -2 2 -6
26 -9 53 l-6 49 83 20 c70 17 84 23 84 39 0 21 1 20 -322 110 -73 20 -133 36
-135 35 -2 0 -102 -28 -223 -63z m365 -25 c80 -22 156 -44 170 -49 24 -9 23
-10 -15 -17 -22 -4 -45 -11 -50 -16 -6 -4 -55 -1 -110 8 -103 15 -209 13 -303
-7 -35 -8 -57 -8 -70 -1 -10 5 -31 12 -47 15 -41 8 -41 14 1 25 57 15 279 79
279 80 1 1 66 -17 145 -38z m-475 -104 c49 -13 50 -14 51 -53 1 -53 -4 -64
-32 -64 -16 0 -24 6 -24 17 0 9 -12 30 -27 45 -24 25 -39 68 -24 68 3 0 29 -6
56 -13z m513 -27 l62 -13 0 -37 0 -37 -57 -5 c-32 -3 -87 -17 -122 -32 l-64
-26 -53 26 c-31 15 -79 28 -113 31 l-61 6 0 34 c0 22 6 36 17 40 80 31 274 37
391 13z m-593 -88 c-36 -5 -45 6 -20 24 18 13 21 13 33 -3 12 -16 10 -18 -13
-21z"/>
<path d="M654 1355 c-61 -18 -98 -41 -134 -81 -68 -78 -78 -157 -32 -245 61
-118 210 -169 345 -119 184 69 218 293 61 401 -72 49 -165 66 -240 44z m179
-65 c89 -42 130 -145 93 -233 -17 -41 -74 -91 -121 -107 -96 -32 -227 14 -268
94 -88 169 110 333 296 246z"/>
<path d="M655 1263 c-30 -8 -75 -43 -75 -58 0 -22 23 -23 60 -3 52 27 102 24
139 -11 49 -46 37 -116 -25 -146 -64 -30 -144 8 -158 75 -4 21 -11 30 -25 30
-23 0 -32 -20 -24 -52 35 -136 238 -153 301 -25 22 43 23 50 10 88 -18 59 -73
101 -135 105 -26 1 -57 0 -68 -3z"/>
<path d="M682 1188 c-14 -14 2 -38 24 -38 8 0 14 -6 14 -14 0 -19 29 -29 45
-16 17 14 8 47 -18 65 -26 18 -49 19 -65 3z"/>
<path d="M1280 1353 c-245 -63 -255 -372 -14 -448 65 -20 154 -16 205 9 44 22
47 21 58 -21 14 -50 14 -133 0 -189 l-12 -46 -44 51 c-56 65 -164 125 -260
147 -72 16 -72 16 -57 39 15 23 13 25 -46 74 -34 28 -64 51 -68 51 -9 -1 -30
-17 -82 -64 -42 -38 -43 -39 -27 -66 l16 -27 -59 -11 c-125 -23 -260 -118
-316 -221 l-22 -43 -21 47 c-28 63 -38 129 -34 209 4 66 4 67 -18 64 -27 -4
-37 -30 -38 -108 -1 -122 51 -241 148 -339 46 -47 60 -66 50 -72 -11 -6 -11
-16 -1 -56 7 -26 20 -55 28 -63 14 -13 17 -13 29 3 11 15 10 26 -5 67 -13 36
-14 47 -5 44 7 -3 16 -17 20 -32 3 -14 12 -40 20 -58 11 -26 18 -31 35 -27 18
5 21 11 16 38 l-6 32 57 -21 c47 -16 82 -20 188 -20 115 0 139 3 205 26 41 14
77 25 78 23 2 -2 -1 -20 -8 -40 -17 -50 -9 -62 40 -62 40 0 43 2 62 44 25 56
21 78 -15 78 -14 0 -28 3 -29 6 -2 4 18 23 45 43 63 48 101 90 136 151 66 114
83 269 41 380 -8 22 -7 31 5 45 9 10 24 40 34 66 65 180 -123 350 -329 297z
m171 -58 c107 -54 145 -150 97 -245 -33 -64 -92 -103 -167 -108 -207 -15 -318
188 -174 319 61 56 170 71 244 34z m-353 -382 c2 0 -9 -20 -24 -43 l-28 -42
-28 33 c-35 41 -35 52 -1 78 l26 21 26 -22 c14 -13 27 -24 29 -25z m93 -102
c113 -24 214 -88 277 -179 l24 -33 -28 -41 c-182 -262 -607 -294 -839 -62
l-34 34 17 47 c21 60 120 162 184 192 48 22 150 51 178 51 8 0 24 -14 35 -30
27 -40 48 -38 82 9 16 23 32 36 38 31 5 -4 35 -13 66 -19z"/>
<path d="M1278 1250 c-37 -20 -48 -42 -29 -55 5 -3 28 2 51 11 50 20 104 13
135 -16 68 -64 6 -164 -95 -155 -41 4 -90 52 -90 90 0 30 -14 39 -39 25 -24
-12 -20 -51 12 -97 27 -40 61 -60 113 -65 120 -14 209 84 170 186 -32 82 -147
120 -228 76z"/>
<path d="M1333 1183 c-4 -10 -1 -19 6 -21 7 -2 23 -16 36 -30 20 -21 26 -23
39 -13 22 18 20 28 -9 56 -28 29 -63 33 -72 8z"/>
<path d="M560 385 c-9 -11 -8 -25 5 -64 16 -51 32 -65 55 -51 10 6 10 17 -1
60 -14 56 -39 79 -59 55z"/>
<path d="M1463 358 c-15 -18 -35 -96 -28 -108 20 -33 62 18 67 81 3 36 -20 51
-39 27z"/>
</g>
</svg>
